# xmcd
# 
# Track frame offsets:
#     150
#     17437
#     33870
#     53000
#     79157
#     95830
#     113130
#     139693
#     155993
#     180392
# 
# Disc length: 2733
# 
# Revision: 12
# Processed by: cddbd v1.5.2PL0 Copyright (c) Steve Scherf et al.
# Submitted via: fre:ac v1.0.27
# 
DISCID=780aab0a
DTITLE=Bob Dylan - Together Through Life
DYEAR=2009
DGENRE=Folk Rock, Blues Rock
TTITLE0=Beyond Here Lies Nothin'
TTITLE1=Life Is Hard
TTITLE2=My Wife's Home Town
TTITLE3=If You Ever Go To Houston
TTITLE4=Forgetful Heart
TTITLE5=Jolene
TTITLE6=This Dream Of You
TTITLE7=Shake Shake Mama
TTITLE8=I Feel A Change Comin' On
TTITLE9=It's All Good
EXTD=CD 2009\nCOLumbia 8 8697-43893-2 3\n33rd Studio Album
EXTT0=
EXTT1=
EXTT2=
EXTT3=
EXTT4=
EXTT5=
EXTT6=
EXTT7=
EXTT8=
EXTT9=
PLAYORDER=
